<?xml version="1.0"?>
<svg xmlns="http://www.w3.org/2000/svg" xmlns:xlink="http://www.w3.org/1999/xlink" width="512" height="512" viewBox="0 0 128 128"><defs><linearGradient id="a" x1="116.823" y1="121.613" x2="11.177" y2="15.967" gradientUnits="userSpaceOnUse"><stop offset="0" stop-color="#3ba9fd"/><stop offset="1" stop-color="#9adb07"/></linearGradient></defs><path d="M109.5,14.33h-3.942V6.5a1.751,1.751,0,0,0-1.75-1.75h-6a1.75,1.75,0,0,0-1.75,1.75v7.83H81.019V6.5a1.751,1.751,0,0,0-1.75-1.75h-6a1.751,1.751,0,0,0-1.75,1.75v7.83H56.481V6.5a1.751,1.751,0,0,0-1.75-1.75h-6a1.751,1.751,0,0,0-1.75,1.75v7.83H31.942V6.5a1.75,1.75,0,0,0-1.75-1.75h-6a1.751,1.751,0,0,0-1.75,1.75v7.83H18.5A13.766,13.766,0,0,0,4.75,28.08v43.3a1.75,1.75,0,0,0,3.5,0V39.25H78a1.75,1.75,0,0,0,0-3.5H8.25V28.08A10.261,10.261,0,0,1,18.5,17.83h3.942V24.5a1.751,1.751,0,0,0,1.75,1.75h6a1.75,1.75,0,0,0,1.75-1.75V17.83H46.981V24.5a1.751,1.751,0,0,0,1.75,1.75h6a1.751,1.751,0,0,0,1.75-1.75V17.83H71.519V24.5a1.751,1.751,0,0,0,1.75,1.75h6a1.751,1.751,0,0,0,1.75-1.75V17.83H96.058V24.5a1.75,1.75,0,0,0,1.75,1.75h6a1.751,1.751,0,0,0,1.75-1.75V17.83H109.5a10.261,10.261,0,0,1,10.25,10.25v7.67H86.5a1.75,1.75,0,0,0,0,3.5h33.25V109.5a10.261,10.261,0,0,1-10.25,10.25h-91A10.261,10.261,0,0,1,8.25,109.5V86.06a1.75,1.75,0,0,0-3.5,0V109.5A13.765,13.765,0,0,0,18.5,123.25h91a13.765,13.765,0,0,0,13.75-13.75V28.08A13.766,13.766,0,0,0,109.5,14.33ZM25.942,22.75V8.25h2.5v7.806c0,.008,0,.016,0,.024s0,.016,0,.024V22.75Zm24.539,0V8.25h2.5v14.5Zm27.038,0h-2.5V8.25h2.5Zm24.539,0h-2.5V16.1c0-.008,0-.016,0-.024s0-.016,0-.024V8.25h2.5ZM4.75,80.25V77a1.75,1.75,0,0,1,3.5,0v3.25a1.75,1.75,0,0,1-3.5,0ZM115.5,58.833a1.751,1.751,0,0,1-1.75-1.75V46.625a1.75,1.75,0,0,1,3.5,0V57.083A1.751,1.751,0,0,1,115.5,58.833ZM82.118,61.082a1.751,1.751,0,0,1-1.75-1.75v-4.5a1.75,1.75,0,0,1,3.5,0v4.5A1.751,1.751,0,0,1,82.118,61.082Zm13.617-2.355a1.748,1.748,0,0,1,0,2.474L92.55,64.386a1.749,1.749,0,1,1-2.474-2.474l3.185-3.185A1.748,1.748,0,0,1,95.735,58.727Zm3.893,15.367h-4.5a1.75,1.75,0,0,1,0-3.5h4.5a1.75,1.75,0,0,1,0,3.5ZM92.544,80.3l3.191,3.191a1.75,1.75,0,0,1-2.474,2.475L90.07,82.777A1.75,1.75,0,1,1,92.544,80.3ZM71.686,64.386,68.5,61.2a1.75,1.75,0,0,1,2.475-2.474l3.185,3.185a1.749,1.749,0,1,1-2.474,2.474Zm-8.6,1.782a16.644,16.644,0,0,0-23.051,8.416A11.089,11.089,0,0,0,29.914,85.252a12.163,12.163,0,0,0-3.292,8.363,12.316,12.316,0,0,0,12.3,12.3H75a1.75,1.75,0,0,0,0-3.5H38.923a8.812,8.812,0,0,1-8.8-8.8,8.721,8.721,0,0,1,2.757-6.385,1.744,1.744,0,0,0,.545-1.337l-.016-.277a7.583,7.583,0,0,1,7.6-7.568h.006l.192.01a1.757,1.757,0,0,0,1.717-1.205,13.143,13.143,0,0,1,19.046-7.306,1.75,1.75,0,0,0,1.341.171,9.709,9.709,0,0,1,11.665,5.774,1.76,1.76,0,0,0,1.672,1.1l.216-.013a7.707,7.707,0,0,1,7.64,7.035,1.749,1.749,0,0,0,1.269,1.54,8.8,8.8,0,0,1-2.395,17.264,1.75,1.75,0,0,0,0,3.5,12.3,12.3,0,0,0,4.455-23.76c-.062-.323-.14-.641-.229-.953A10.422,10.422,0,1,0,72.765,67.749a13.2,13.2,0,0,0-9.678-1.581ZM82.12,65.42A6.911,6.911,0,0,1,86.1,77.99a11.239,11.239,0,0,0-8.355-4.877,13.306,13.306,0,0,0-2.136-3.062A6.928,6.928,0,0,1,82.12,65.42Z" fill="url(#a)"/></svg>
