<svg height="512pt" viewBox="0 0 512 512" width="512pt" xmlns="http://www.w3.org/2000/svg"><path d="m266 512h-20c-33.085938 0-60-26.914062-60-60v-10.074219c0-2.648437-1.667969-5.050781-4.253906-6.117187l-.367188-.152344c-2.589844-1.074219-5.480468-.5625-7.351562 1.3125l-7.121094 7.125c-11.332031 11.332031-26.398438 17.570312-42.429688 17.570312-16.023437 0-31.09375-6.238281-42.425781-17.570312l-14.140625-14.144531c-11.332031-11.332031-17.574218-26.398438-17.574218-42.425781 0-16.027344 6.242187-31.09375 17.574218-42.425782l7.121094-7.125c1.875-1.871094 2.390625-4.757812 1.3125-7.351562l-.152344-.367188c-1.066406-2.585937-3.46875-4.253906-6.117187-4.253906h-10.074219c-33.085938 0-60-26.914062-60-60v-20c0-33.085938 26.914062-60 60-60h10.074219c2.648437 0 5.050781-1.667969 6.117187-4.253906l.152344-.363282c1.074219-2.59375.5625-5.480468-1.3125-7.355468l-7.125-7.121094c-11.332031-11.332031-17.570312-26.398438-17.570312-42.425781 0-16.027344 6.238281-31.097657 17.574218-42.429688l14.140625-14.140625c11.332031-11.332031 26.398438-17.574218 42.425781-17.574218 16.027344 0 31.097657 6.242187 42.429688 17.574218l7.121094 7.121094c1.871094 1.875 4.757812 2.390625 7.355468 1.3125l.367188-.152344c2.582031-1.066406 4.25-3.46875 4.25-6.117187v-10.074219c0-33.085938 26.917969-60 60-60h20c33.085938 0 60 26.914062 60 60v10.074219c0 2.648437 1.671875 5.050781 4.253906 6.117187l.367188.152344c2.59375 1.078125 5.480468.5625 7.355468-1.3125l7.121094-7.125c11.332032-11.332031 26.398438-17.570312 42.425782-17.570312 16.027343 0 31.09375 6.238281 42.425781 17.570312l14.144531 14.144531c11.332031 11.332031 17.570312 26.398438 17.570312 42.425781 0 16.027344-6.238281 31.09375-17.570312 42.425782l-7.125 7.125c-1.871094 1.871094-2.386719 4.761718-1.3125 7.355468l.152344.363282c1.066406 2.582031 3.46875 4.253906 6.117187 4.253906h10.074219c33.085938 0 60 26.914062 60 60v20c0 33.082031-26.914062 60-60 60h-10.074219c-2.648437 0-5.050781 1.667969-6.117187 4.25l-.152344.367188c-1.074219 2.59375-.5625 5.480468 1.3125 7.355468 7.8125 7.8125 7.8125 20.476563 0 28.285156-7.8125 7.8125-20.472656 7.808594-28.285156 0-13.363282-13.371093-17.277344-33.382812-9.964844-50.984374l.121094-.292969c7.269531-17.605469 24.183594-28.980469 43.085937-28.980469h10.074219c11.027344 0 20-8.972656 20-20v-20c0-11.027344-8.972656-20-20-20h-10.074219c-18.902343 0-35.816406-11.375-43.085937-28.980469l-.152344-.367187c-7.28125-17.53125-3.371094-37.542969 9.996094-50.910156l7.121094-7.121094c3.78125-3.777344 5.859374-8.800782 5.859374-14.140625 0-5.34375-2.078124-10.367188-5.855468-14.144531l-14.144532-14.144532c-3.777343-3.777344-8.800781-5.855468-14.140624-5.855468-5.34375 0-10.367188 2.078124-14.144532 5.855468l-7.121094 7.125c-13.371093 13.367188-33.378906 17.277344-50.984374 9.964844l-.292969-.121094c-17.605469-7.269531-28.980469-24.183594-28.980469-43.085937v-10.074219c0-11.027344-8.972656-20-20-20h-20c-11.027344 0-20 8.972656-20 20v10.074219c0 18.902343-11.375 35.816406-28.980469 43.085937l-.292969.121094c-17.605468 7.3125-37.617187 3.402344-50.984374-9.964844l-7.121094-7.121094c-3.777344-3.78125-8.800782-5.859374-14.144532-5.859374-5.339843 0-10.363281 2.078124-14.140624 5.859374l-14.140626 14.140626c-3.78125 3.777343-5.859374 8.800781-5.859374 14.144531 0 5.339843 2.078124 10.363281 5.859374 14.140625l7.121094 7.121094c13.367188 13.367187 17.277344 33.378906 9.964844 50.984374l-.121094.292969c-7.269531 17.605469-24.183594 28.980469-43.085937 28.980469h-10.074219c-11.027344 0-20 8.972656-20 20v20c0 11.027344 8.972656 20 20 20h10.074219c18.902343 0 35.816406 11.375 43.085937 28.980469l.121094.292969c7.3125 17.605468 3.402344 37.617187-9.964844 50.984374l-7.125 7.121094c-3.777344 3.777344-5.855468 8.800782-5.855468 14.140625 0 5.34375 2.078124 10.367188 5.855468 14.144531l14.144532 14.144532c3.777343 3.777344 8.800781 5.855468 14.140624 5.855468 5.34375 0 10.367188-2.078124 14.144532-5.855468l7.121094-7.125c13.371093-13.367188 33.378906-17.277344 50.984374-9.964844l.292969.121094c17.605469 7.269531 28.980469 24.183594 28.980469 43.085937v10.074219c0 11.027344 8.972656 20 20 20h20c11.027344 0 20-8.972656 20-20v-10.074219c0-18.902343 11.375-35.816406 28.980469-43.085937l.292969-.121094c17.605468-7.3125 37.617187-3.402344 50.984374 9.964844l7.121094 7.121094c3.777344 3.78125 8.800782 5.859374 14.144532 5.859374 5.339843 0 10.363281-2.078124 14.140624-5.859374 7.808594-7.808594 20.476563-7.808594 28.285157 0 7.808593 7.8125 7.808593 20.476562 0 28.285156-11.332031 11.332031-26.398438 17.574218-42.425781 17.574218-16.027344 0-31.097657-6.242187-42.429688-17.574218l-7.121094-7.121094c-1.871094-1.875-4.757812-2.390625-7.355468-1.3125l-.367188.152344c-2.582031 1.066406-4.25 3.46875-4.25 6.117187v10.074219c0 33.085938-26.914062 60-60 60zm-30.058594-166.113281c14.316406-.953125 27.679688-7.914063 36.667969-19.097657.253906-.316406.496094-.640624.730469-.972656l82.980468-117.203125c6.382813-9.015625 4.25-21.5-4.765624-27.882812-9.015626-6.382813-21.496094-4.246094-27.878907 4.769531l-82.546875 116.589844c-2.6875 3.09375-6.046875 3.765625-7.847656 3.886718-1.867188.121094-5.476562-.117187-8.632812-3.125-.101563-.09375-.203126-.1875-.304688-.28125l-52.859375-48.28125c-8.15625-7.449218-20.804687-6.878906-28.253906 1.277344s-6.875 20.808594 1.277343 28.257813l52.726563 48.15625c9.546875 9.007812 22.25 14.019531 35.3125 14.019531 1.132813 0 2.265625-.039062 3.394531-.113281zm0 0"/></svg>