<?xml version="1.0" encoding="iso-8859-1"?>
<!-- Generator: Adobe Illustrator 19.0.0, SVG Export Plug-In . SVG Version: 6.00 Build 0)  -->
<svg version="1.1" id="Capa_1" xmlns="http://www.w3.org/2000/svg" xmlns:xlink="http://www.w3.org/1999/xlink" x="0px" y="0px"
	 viewBox="0 0 512 512" style="enable-background:new 0 0 512 512;" xml:space="preserve">
<g>
	<g>
		<path d="M480,213.333H245.333v21.333H480c5.891,0,10.667,4.776,10.667,10.667V480c0,5.891-4.776,10.667-10.667,10.667H32
			c-5.891,0-10.667-4.776-10.667-10.667V245.333c0-5.891,4.776-10.667,10.667-10.667h106.667v-21.333H32c-17.673,0-32,14.327-32,32
			V480c0,17.673,14.327,32,32,32h448c17.673,0,32-14.327,32-32V245.333C512,227.66,497.673,213.333,480,213.333z"/>
	</g>
</g>
<g>
	<g>
		<path d="M116.448,277.333h22.219c0.815,0.024,1.631,0.024,2.447,0c22.888-0.676,40.896-19.778,40.22-42.667V53.333H160v181.333
			c0.056,0.866,0.056,1.735,0,2.602c-0.718,11.064-10.27,19.45-21.333,18.732h-32C100.776,256,96,260.776,96,266.667
			c0,23.564-19.103,42.667-42.667,42.667c-5.891,0-10.667,4.776-10.667,10.667v85.333c0,5.891,4.776,10.667,10.667,10.667
			C76.897,416,96,435.103,96,458.667c0,5.891,4.776,10.667,10.667,10.667H160V448h-43.552c-4.588-26.838-25.61-47.86-52.448-52.448
			v-65.771C90.838,325.193,111.86,304.171,116.448,277.333z"/>
	</g>
</g>
<g>
	<g>
		<path d="M458.667,309.333c-23.564,0-42.667-19.102-42.667-42.667c0-5.891-4.776-10.667-10.667-10.667h-32v21.333h22.219
			c4.588,26.838,25.61,47.86,52.448,52.448v65.771c-26.838,4.588-47.86,25.61-52.448,52.448H352v21.333h53.333
			c5.891,0,10.667-4.776,10.667-10.667C416,435.103,435.103,416,458.667,416c5.891,0,10.667-4.776,10.667-10.667V320
			C469.333,314.109,464.558,309.333,458.667,309.333z"/>
	</g>
</g>
<g>
	<g>
		<rect x="42.667" y="256" width="21.333" height="21.333"/>
	</g>
</g>
<g>
	<g>
		<rect x="448" y="256" width="21.333" height="21.333"/>
	</g>
</g>
<g>
	<g>
		<rect x="448" y="448" width="21.333" height="21.333"/>
	</g>
</g>
<g>
	<g>
		<rect x="42.667" y="448" width="21.333" height="21.333"/>
	</g>
</g>
<g>
	<g>
		<path d="M256,256c-58.91,0-106.667,47.756-106.667,106.667c0,58.91,47.756,106.667,106.667,106.667
			c58.884-0.065,106.602-47.783,106.667-106.667C362.667,303.756,314.91,256,256,256z M256,448
			c-47.128,0-85.333-38.205-85.333-85.333s38.205-85.333,85.333-85.333c47.106,0.053,85.28,38.227,85.333,85.333
			C341.333,409.795,303.128,448,256,448z"/>
	</g>
</g>
<g>
	<g>
		<path d="M149.333,0H64C46.327,0,32,14.327,32,32v42.667c0,17.673,14.327,32,32,32h85.333c17.673,0,32-14.327,32-32V32
			C181.333,14.327,167.006,0,149.333,0z M160,74.667c0,5.891-4.776,10.667-10.667,10.667H64c-5.891,0-10.667-4.776-10.667-10.667V32
			c0-5.891,4.776-10.667,10.667-10.667h85.333C155.224,21.333,160,26.109,160,32V74.667z"/>
	</g>
</g>
<g>
	<g>
		<path d="M277.333,64H192c-17.673,0-32,14.327-32,32v42.667c0,17.673,14.327,32,32,32h85.333c17.673,0,32-14.327,32-32V96
			C309.333,78.327,295.006,64,277.333,64z M288,138.667c0,5.891-4.776,10.667-10.667,10.667H192
			c-5.891,0-10.667-4.776-10.667-10.667V96c0-5.891,4.776-10.667,10.667-10.667h85.333C283.224,85.333,288,90.109,288,96V138.667z"
			/>
	</g>
</g>
<g>
	<g>
		<rect x="85.333" y="42.667" width="85.333" height="21.333"/>
	</g>
</g>
<g>
	<g>
		<rect x="170.667" y="106.667" width="85.333" height="21.333"/>
	</g>
</g>
<g>
	<g>
		<rect x="202.667" y="213.333" width="21.333" height="21.333"/>
	</g>
</g>
<g>
</g>
<g>
</g>
<g>
</g>
<g>
</g>
<g>
</g>
<g>
</g>
<g>
</g>
<g>
</g>
<g>
</g>
<g>
</g>
<g>
</g>
<g>
</g>
<g>
</g>
<g>
</g>
<g>
</g>
</svg>
