<?xml version="1.0" encoding="iso-8859-1"?>
<!-- Generator: Adobe Illustrator 19.0.0, SVG Export Plug-In . SVG Version: 6.00 Build 0)  -->
<svg xmlns="http://www.w3.org/2000/svg" xmlns:xlink="http://www.w3.org/1999/xlink" version="1.1" id="Capa_1" x="0px" y="0px" viewBox="0 0 512.199 512.199" style="enable-background:new 0 0 512.199 512.199;" xml:space="preserve" width="512px" height="512px">
<g transform="translate(0 -1)">
	<g>
		<g>
			<path d="M251.838,35.226c-21.208,0-38.4,17.192-38.4,38.4c0,21.208,17.192,38.4,38.4,38.4c21.198-0.023,38.377-17.202,38.4-38.4     C290.238,52.418,273.046,35.226,251.838,35.226z M251.838,94.959c-11.782,0-21.333-9.551-21.333-21.333     c0-11.782,9.551-21.333,21.333-21.333c11.782,0,21.333,9.551,21.333,21.333C273.172,85.408,263.62,94.959,251.838,94.959z" fill="#FFFFFF"/>
			<path d="M264.638,291.226c4.713,0,8.533-3.82,8.533-8.533v-25.6c0-4.713-3.821-8.533-8.533-8.533s-8.533,3.82-8.533,8.533v25.6     C256.105,287.405,259.925,291.226,264.638,291.226z" fill="#FFFFFF"/>
			<path d="M264.638,350.959c4.713,0,8.533-3.82,8.533-8.533v-17.067c0-4.713-3.821-8.533-8.533-8.533s-8.533,3.82-8.533,8.533     v17.067C256.105,347.139,259.925,350.959,264.638,350.959z" fill="#FFFFFF"/>
			<path d="M264.638,402.159c4.713,0,8.533-3.821,8.533-8.533v-17.067c0-4.713-3.821-8.533-8.533-8.533s-8.533,3.82-8.533,8.533     v17.067C256.105,398.339,259.925,402.159,264.638,402.159z" fill="#FFFFFF"/>
			<path d="M264.638,461.893c4.713,0,8.533-3.821,8.533-8.533v-17.067c0-4.713-3.821-8.533-8.533-8.533s-8.533,3.82-8.533,8.533     v17.067C256.105,458.072,259.925,461.893,264.638,461.893z" fill="#FFFFFF"/>
			<path d="M511.724,244.172c-2.11-12.274-12.765-21.236-25.219-21.212c-12.454-0.024-23.109,8.939-25.219,21.212     c-2.11,12.274,4.939,24.28,16.686,28.418v35.703c0,4.713-3.82,8.533-8.533,8.533H307.305v-34.133h42.667     c14.138,0,25.6-11.462,25.6-25.6v-10.103c11.755-4.156,18.806-16.176,16.698-28.465s-12.763-21.271-25.231-21.271     s-23.123,8.982-25.231,21.271s4.943,24.309,16.698,28.465v10.103c0,4.713-3.82,8.533-8.533,8.533h-42.667v-48.435     c46.887-25.733,69.896-80.353,55.555-131.88C348.518,33.785,300.599-1.093,247.159,1.098S148.816,41.973,138.741,94.5     c-10.075,52.527,17.328,105.08,66.164,126.889v61.303c0,2.263,0.9,4.433,2.5,6.033l19.567,19.567l-17.067,17.067H93.972     c-4.713,0-8.533-3.82-8.533-8.533v-69.837c11.755-4.156,18.806-16.176,16.698-28.465c-2.108-12.289-12.763-21.271-25.231-21.271     s-23.123,8.982-25.231,21.271s4.943,24.309,16.698,28.465v69.837c0,14.138,11.461,25.6,25.6,25.6h115.934l17.067,17.067     l-17.067,17.067H42.772c-14.138,0-25.6,11.462-25.6,25.6v35.703c-11.755,4.156-18.806,16.176-16.698,28.465     c2.108,12.289,12.763,21.271,25.231,21.271c12.468,0,23.123-8.982,25.231-21.271c2.108-12.289-4.943-24.309-16.698-28.465     v-35.703c0-4.713,3.82-8.533,8.533-8.533h167.134l17.067,17.067l-17.067,17.067h-47.667c-14.138,0-25.6,11.462-25.6,25.6v10.103     c-11.755,4.156-18.806,16.176-16.698,28.465c2.108,12.289,12.763,21.271,25.231,21.271c12.468,0,23.123-8.982,25.231-21.271     c2.108-12.289-4.943-24.309-16.698-28.465v-10.103c0-4.713,3.82-8.533,8.533-8.533h42.667v7.936     c-0.002,6.027,2.061,11.872,5.845,16.563l27.989,34.313c4.27,5.298,10.491,8.659,17.263,9.327     c0.853,0.085,1.707,0.128,2.56,0.128c5.846,0.004,11.509-2.036,16.009-5.769l23.245-18.978     c6.028-4.987,9.509-12.409,9.489-20.233v-83.021h110.933c4.713,0,8.533,3.821,8.533,8.533v69.837     c-11.755,4.156-18.806,16.176-16.698,28.465s12.763,21.271,25.231,21.271s23.123-8.982,25.231-21.271     c2.108-12.289-4.943-24.309-16.698-28.465v-69.837c0-14.138-11.461-25.6-25.6-25.6H307.305v-34.133h162.133     c14.138,0,25.6-11.461,25.6-25.6v-35.703C506.785,268.452,513.835,256.445,511.724,244.172z M367.038,214.426     c4.713,0,8.533,3.82,8.533,8.533s-3.82,8.533-8.533,8.533s-8.533-3.82-8.533-8.533S362.326,214.426,367.038,214.426z      M76.905,231.493c-4.713,0-8.533-3.82-8.533-8.533s3.82-8.533,8.533-8.533s8.533,3.82,8.533,8.533S81.618,231.493,76.905,231.493     z M25.705,470.426c-4.713,0-8.533-3.82-8.533-8.533s3.82-8.533,8.533-8.533s8.533,3.821,8.533,8.533     S30.418,470.426,25.705,470.426z M145.172,496.026c-4.713,0-8.533-3.82-8.533-8.533s3.82-8.533,8.533-8.533     s8.533,3.82,8.533,8.533S149.884,496.026,145.172,496.026z M435.305,478.959c4.713,0,8.533,3.82,8.533,8.533     s-3.82,8.533-8.533,8.533s-8.533-3.82-8.533-8.533S430.592,478.959,435.305,478.959z M290.238,468.122     c0.011,2.716-1.183,5.298-3.26,7.049l-23.194,18.953c-1.681,1.409-3.859,2.079-6.042,1.86c-2.254-0.232-4.321-1.36-5.734-3.132     l-27.972-34.295c-1.342-1.632-2.073-3.681-2.065-5.794v-12.937l23.1-23.1c3.331-3.332,3.331-8.734,0-12.066l-19.567-19.567     l19.567-19.567c3.331-3.332,3.331-8.734,0-12.066l-19.567-19.567l19.567-19.567c3.331-3.332,3.331-8.734,0-12.066l-23.1-23.1     v-51.738c22.481,6.211,46.337,5.28,68.267-2.662L290.238,468.122z M251.838,214.426c-54.172-0.061-98.072-43.961-98.133-98.133     c0-54.198,43.936-98.133,98.133-98.133c54.198,0,98.133,43.936,98.133,98.133C349.972,170.49,306.036,214.426,251.838,214.426z      M486.505,257.093c-4.713,0-8.533-3.82-8.533-8.533s3.82-8.533,8.533-8.533s8.533,3.82,8.533,8.533     S491.218,257.093,486.505,257.093z" fill="#FFFFFF"/>
		</g>
	</g>
</g>
<g>
</g>
<g>
</g>
<g>
</g>
<g>
</g>
<g>
</g>
<g>
</g>
<g>
</g>
<g>
</g>
<g>
</g>
<g>
</g>
<g>
</g>
<g>
</g>
<g>
</g>
<g>
</g>
<g>
</g>
</svg>
