<?xml version="1.0" encoding="iso-8859-1"?>
<!-- Generator: Adobe Illustrator 19.0.0, SVG Export Plug-In . SVG Version: 6.00 Build 0)  -->
<svg version="1.1" id="Capa_1" xmlns="http://www.w3.org/2000/svg" xmlns:xlink="http://www.w3.org/1999/xlink" x="0px" y="0px"
	 viewBox="0 0 480 480" style="enable-background:new 0 0 480 480;" xml:space="preserve">
<g>
	<g>
		<path d="M246.656,339.562L216,293.578V252c0-59.647-48.353-108-108-108C48.353,144,0,192.353,0,252v220
			c-0.001,4.417,3.579,7.999,7.996,8c0.001,0,0.003,0,0.004,0h88c4.417,0.001,7.999-3.579,8-7.996c0-0.001,0-0.003,0-0.004v-56h104
			c4.417,0.001,7.999-3.579,8-7.996c0-0.001,0-0.003,0-0.004v-56h24c4.418,0,8-3.581,8-7.999
			C248,342.421,247.533,340.877,246.656,339.562z M208,336c-4.417-0.001-7.999,3.579-8,7.996c0,0.001,0,0.003,0,0.004v56H96
			c-4.417-0.001-7.999,3.579-8,7.996c0,0.001,0,0.003,0,0.004v56H16V252c0-50.81,41.19-92,92-92s92,41.19,92,92v44
			c0.001,1.579,0.468,3.123,1.344,4.438L225.055,336H208z"/>
	</g>
</g>
<g>
	<g>
		<path d="M112,216c-13.255,0-24,10.745-24,24c0.014,13.249,10.751,23.986,24,24c13.255,0,24-10.745,24-24S125.255,216,112,216z
			 M112,248c-4.418,0-8-3.582-8-8c0.004-4.416,3.584-7.996,8-8c4.418,0,8,3.582,8,8S116.418,248,112,248z"/>
	</g>
</g>
<g>
	<g>
		<path d="M171.102,225.379l-9.242-4.758c-0.281-0.719-0.578-1.438-0.898-2.152l3.172-9.922c0.79-2.486,0.321-5.201-1.258-7.277
			c-3.481-4.572-7.562-8.654-12.133-12.137c-2.08-1.581-4.799-2.052-7.289-1.262l-9.922,3.168c-0.711-0.316-1.43-0.617-2.148-0.898
			l-4.766-9.242c-1.37-2.663-4.114-4.337-7.109-4.336h-15.016c-2.995-0.001-5.739,1.673-7.109,4.336l-4.766,9.242
			c-0.719,0.281-1.43,0.582-2.141,0.898l-9.922-3.172c-2.49-0.794-5.21-0.325-7.289,1.258c-4.572,3.487-8.655,7.572-12.141,12.144
			c-1.578,2.077-2.048,4.791-1.258,7.277l3.172,9.922c-0.32,0.715-0.617,1.434-0.898,2.152l-9.242,4.758
			c-2.663,1.373-4.336,4.117-4.336,7.113v15.011c-0.001,2.995,1.673,5.739,4.336,7.109l9.242,4.766
			c0.281,0.719,0.578,1.434,0.898,2.152l-3.172,9.922c-0.79,2.486-0.32,5.201,1.258,7.277c3.481,4.572,7.562,8.654,12.133,12.137
			c2.075,1.592,4.8,2.064,7.289,1.262l9.922-3.168c0.711,0.316,1.43,0.617,2.148,0.898l4.766,9.242
			c1.37,2.663,4.114,4.337,7.109,4.336h15.016c2.995,0.001,5.739-1.673,7.109-4.336l4.766-9.242c0.719-0.281,1.43-0.582,2.148-0.898
			l9.914,3.168c2.487,0.788,5.201,0.321,7.281-1.254c4.579-3.482,8.665-7.567,12.148-12.145c1.578-2.077,2.047-4.791,1.258-7.277
			l-3.172-9.922c0.32-0.715,0.617-1.434,0.898-2.152l9.242-4.758c2.663-1.373,4.336-4.118,4.336-7.113v-15.016
			C175.438,229.497,173.765,226.752,171.102,225.379z M159.438,242.629l-7.719,3.977c-1.899,0.979-3.328,2.677-3.969,4.715
			c-0.651,2.044-1.479,4.027-2.477,5.926c-0.976,1.891-1.165,4.092-0.523,6.121l2.805,8.785c-1.073,1.192-2.208,2.328-3.398,3.402
			l-8.781-2.805c-2.027-0.648-4.229-0.461-6.117,0.52c-1.91,0.997-3.901,1.83-5.953,2.488c-2.03,0.644-3.72,2.071-4.695,3.965
			l-3.977,7.715h-5.266l-3.977-7.715c-0.975-1.894-2.665-3.321-4.695-3.965c-2.052-0.658-4.043-1.491-5.953-2.488
			c-1.888-0.981-4.09-1.168-6.117-0.52l-8.781,2.805c-1.19-1.076-2.324-2.211-3.398-3.402l2.805-8.785
			c0.641-2.029,0.453-4.23-0.523-6.121c-0.997-1.899-1.826-3.882-2.477-5.926c-0.641-2.037-2.07-3.733-3.969-4.711l-7.719-3.98
			v-5.258l7.719-3.977c1.899-0.979,3.328-2.677,3.969-4.715c0.651-2.044,1.479-4.027,2.477-5.926
			c0.977-1.891,1.165-4.092,0.523-6.121l-2.805-8.785c1.075-1.194,2.212-2.331,3.406-3.406l8.781,2.809
			c2.032,0.649,4.24,0.46,6.133-0.523c1.901-0.999,3.885-1.83,5.93-2.484c2.03-0.644,3.72-2.071,4.695-3.965l3.977-7.715h5.266
			l3.977,7.715c0.975,1.894,2.665,3.321,4.695,3.965c2.052,0.658,4.043,1.491,5.953,2.488c1.889,0.981,4.09,1.168,6.117,0.52
			l8.781-2.805c1.19,1.076,2.324,2.211,3.398,3.402l-2.805,8.785c-0.641,2.029-0.453,4.23,0.523,6.121
			c0.997,1.899,1.826,3.882,2.477,5.926c0.641,2.038,2.07,3.735,3.969,4.715l7.719,3.977V242.629z"/>
	</g>
</g>
<g>
	<g>
		<path d="M440,128c0-48.523-35.891-88-80-88s-80,39.477-80,88c-0.125,19.154,5.658,37.881,16.563,53.629
			c8.46,15.092,13.527,31.848,14.85,49.099c-9.408,8.912-9.929,23.722-1.17,33.273c-8.894,9.75-8.201,24.863,1.548,33.758
			c4.429,4.04,10.215,6.268,16.209,6.242h64c13.197,0.058,23.942-10.594,24-23.791c0.026-5.995-2.202-11.781-6.242-16.209
			c8.759-9.55,8.238-24.361-1.17-33.272c1.323-17.256,6.393-34.015,14.857-49.11C434.345,165.872,440.126,147.149,440,128z M392,288
			h-64c-4.418,0-8-3.582-8-8s3.582-8,8-8h64c4.418,0,8,3.582,8,8S396.418,288,392,288z M392,256h-64c-4.418,0-8-3.582-8-8
			s3.582-8,8-8h64c4.416,0.004,7.996,3.584,8,8C399.996,252.416,396.416,255.996,392,256z M393.236,224.125
			C392.818,224.103,392.423,224,392,224h-64c-0.423,0-0.818,0.103-1.236,0.125c-1.929-18.246-7.755-35.865-17.084-51.664
			c-9.026-13.06-13.803-28.586-13.68-44.461c0-39.699,28.711-72,64-72c35.289,0,64,32.301,64,72
			c0.124,15.87-4.65,31.392-13.672,44.449C400.995,188.251,395.166,205.874,393.236,224.125z"/>
	</g>
</g>
<g>
	<g>
		<path d="M312,120h16c0.019-17.665,14.335-31.981,32-32V72C333.502,72.029,312.029,93.502,312,120z"/>
	</g>
</g>
<g>
	<g>
		<rect x="352" width="16" height="24"/>
	</g>
</g>
<g>
	<g>
		<rect x="456" y="96" width="24" height="16"/>
	</g>
</g>
<g>
	<g>
		<rect x="240" y="96" width="24" height="16"/>
	</g>
</g>
<g>
	<g>
		<rect x="275.631" y="31.63" transform="matrix(0.7071 -0.7071 0.7071 0.7071 52.2224 213.3357)" width="16" height="24"/>
	</g>
</g>
<g>
	<g>
		<rect x="424.391" y="35.63" transform="matrix(0.7071 -0.7071 0.7071 0.7071 96.965 321.3539)" width="24" height="16"/>
	</g>
</g>
<g>
	<g>
		<rect x="232" y="232" width="16" height="16"/>
	</g>
</g>
<g>
	<g>
		<rect x="264" y="232" width="16" height="16"/>
	</g>
</g>
<g>
	<g>
		<rect x="264" y="264" width="16" height="16"/>
	</g>
</g>
<g>
	<g>
		<rect x="264" y="296" width="16" height="16"/>
	</g>
</g>
<g>
	<g>
		<rect x="264" y="328" width="16" height="16"/>
	</g>
</g>
<g>
	<g>
		<rect x="264" y="360" width="16" height="16"/>
	</g>
</g>
<g>
	<g>
		<rect x="264" y="392" width="16" height="16"/>
	</g>
</g>
<g>
	<g>
		<rect x="360" y="328" width="16" height="16"/>
	</g>
</g>
<g>
	<g>
		<rect x="360" y="360" width="16" height="16"/>
	</g>
</g>
<g>
	<g>
		<rect x="360" y="392" width="16" height="16"/>
	</g>
</g>
<g>
	<g>
		<rect x="296" y="392" width="16" height="16"/>
	</g>
</g>
<g>
	<g>
		<rect x="328" y="392" width="16" height="16"/>
	</g>
</g>
<g>
</g>
<g>
</g>
<g>
</g>
<g>
</g>
<g>
</g>
<g>
</g>
<g>
</g>
<g>
</g>
<g>
</g>
<g>
</g>
<g>
</g>
<g>
</g>
<g>
</g>
<g>
</g>
<g>
</g>
</svg>
