<svg height="430pt" viewBox="-24 0 430 430.08171" width="430pt" xmlns="http://www.w3.org/2000/svg"><path d="m43.296875 132.421875c-.570313 0-1.152344-.070313-1.730469-.222656l-36.421875-9.542969c-3.652343-.953125-5.832031-4.683594-4.878906-8.332031.957031-3.648438 4.6875-5.828125 8.332031-4.871094l36.421875 9.539063c3.652344.953124 5.832031 4.6875 4.878907 8.332031-.808594 3.066406-3.574219 5.097656-6.601563 5.097656zm0 0"/><path d="m13.699219 177.5c-2.746094 0-5.335938-1.675781-6.375-4.394531-1.34375-3.519531.414062-7.464844 3.933593-8.8125l30.96875-11.839844c3.53125-1.339844 7.46875.410156 8.8125 3.9375 1.347657 3.519531-.410156 7.46875-3.933593 8.816406l-30.96875 11.839844c-.804688.304687-1.625.453125-2.4375.453125zm0 0"/><path d="m41.003906 150.1875h-34.132812c-3.773438 0-6.8281252-3.054688-6.8281252-6.824219 0-3.773437 3.0546872-6.828125 6.8281252-6.828125h34.132812c3.773438 0 6.828125 3.054688 6.828125 6.828125 0 3.769531-3.054687 6.824219-6.828125 6.824219zm0 0"/><path d="m198.019531 430.082031h-20.480469c-3.773437 0-6.828124-3.058593-6.828124-6.828125v-64c0-3.769531 3.054687-6.824218 6.828124-6.824218 3.773438 0 6.824219 3.054687 6.824219 6.824218v57.175782h6.828125v-71.683594c0-3.769532 3.054688-6.828125 6.828125-6.828125 3.773438 0 6.824219 3.058593 6.824219 6.828125v78.507812c0 3.769532-3.050781 6.828125-6.824219 6.828125zm0 0"/><path d="m157.058594 375.46875c-.816406 0-1.625-.144531-2.40625-.4375-2.09375-.789062-3.671875-2.558594-4.214844-4.730469l-11.5-45.980469-53.660156 29.808594c-2.351563 1.3125-5.273438 1.105469-7.417969-.511718-2.15625-1.621094-3.15625-4.363282-2.546875-6.992188l38.625-167.382812-64.886719 11.796874c-1.90625.339844-3.859375-.136718-5.386719-1.3125-1.53125-1.179687-2.492187-2.953124-2.640624-4.882812l-6.824219-88.746094c-.160157-2.054687.617187-4.074218 2.125-5.488281 1.5-1.421875 3.574219-2.09375 5.601562-1.796875l108.503907 14.796875c3.742187.507813 6.355468 3.949219 5.847656 7.6875-.507813 3.734375-3.957032 6.335937-7.6875 5.839844l-100.132813-13.65625 5.601563 72.773437 67.644531-12.300781c2.253906-.394531 4.582031.339844 6.160156 2.003906 1.585938 1.664063 2.226563 4.011719 1.714844 6.25l-37.507813 162.53125 48.019532-26.675781c1.847656-1.035156 4.074218-1.144531 6.035156-.296875 1.945312.847656 3.382812 2.546875 3.898438 4.605469l11.261718 45.039062 80.632813-55.820312c2.574219-1.777344 6.023437-1.578125 8.378906.476562l39.832031 34.847656-30.558594-165.003906c-.414062-2.226562.308594-4.511718 1.921876-6.101562 1.617187-1.59375 3.917968-2.285156 6.132812-1.832032l60.101562 12.019532v-66.089844l-94.929687 9.046875c-3.851563.316406-7.085937-2.402344-7.4375-6.152344-.359375-3.753906 2.390625-7.085937 6.148437-7.441406l102.398438-9.753906c1.898438-.195313 3.820312.453125 5.238281 1.746093 1.421875 1.289063 2.234375 3.125 2.234375 5.050782v81.917968c0 2.046876-.921875 3.984376-2.5 5.28125-1.574218 1.300782-3.648437 1.832032-5.667968 1.414063l-58.378907-11.675781 32.300781 174.40625c.527344 2.855468-.808593 5.734375-3.332031 7.175781-2.527343 1.429687-5.6875 1.121094-7.875-.796875l-50.613281-44.28125-84.367188 58.410156c-1.160156.800782-2.519531 1.214844-3.886718 1.214844zm0 0"/><path d="m191.191406 136.535156c-33.878906 0-61.441406-27.5625-61.441406-61.441406 0-6.476562 1-12.851562 2.980469-18.949219 1.160156-3.585937 4.996093-5.554687 8.601562-4.390625 3.585938 1.164063 5.546875 5.011719 4.386719 8.597656-1.535156 4.742188-2.3125 9.699219-2.3125 14.742188 0 26.351562 21.4375 47.789062 47.785156 47.789062s47.785156-21.4375 47.785156-47.789062c0-5.003906-.765624-9.921875-2.277343-14.628906-1.15625-3.589844.816406-7.433594 4.414062-8.589844 3.578125-1.144531 7.425781.824219 8.585938 4.414062 1.945312 6.054688 2.933593 12.386719 2.933593 18.804688 0 33.878906-27.5625 61.441406-61.441406 61.441406zm0 0"/><path d="m266.285156 61.441406h-150.1875c-3.773437 0-6.828125-3.054687-6.828125-6.828125 0-3.769531 3.054688-6.824219 6.828125-6.824219h150.1875c3.773438 0 6.828125 3.054688 6.828125 6.824219 0 3.773438-3.054687 6.828125-6.828125 6.828125zm0 0"/><path d="m245.804688 61.441406h-109.226563c-2.082031 0-4.046875-.949218-5.339844-2.578125-1.300781-1.625-1.78125-3.753906-1.316406-5.78125l11.027344-47.789062c.714843-3.097657 3.472656-5.292969 6.652343-5.292969h87.175782c3.179687 0 5.9375 2.191406 6.652344 5.292969l11.027343 47.789062c.464844 2.027344-.015625 4.15625-1.316406 5.78125-1.289063 1.628907-3.253906 2.578125-5.335937 2.578125zm-100.648438-13.652344h92.066406l-7.878906-34.132812h-76.304688zm0 0"/><path d="m225.316406 273.070312c-3.183594 0-6.039062-2.246093-6.683594-5.488281l-13.65625-68.265625c-.738281-3.699218 1.660157-7.292968 5.355469-8.035156 3.726563-.730469 7.300781 1.664062 8.03125 5.355469l13.65625 68.265625c.738281 3.695312-1.660156 7.292968-5.355469 8.03125-.453124.09375-.90625.136718-1.347656.136718zm0 0"/><path d="m198.011719 225.28125c-3.1875 0-6.039063-2.242188-6.6875-5.488281-.742188-3.695313 1.660156-7.289063 5.355469-8.03125l34.132812-6.828125c3.738281-.726563 7.296875 1.664062 8.03125 5.355468.742188 3.695313-1.660156 7.292969-5.351562 8.03125l-34.132813 6.828126c-.453125.089843-.90625.132812-1.347656.132812zm0 0"/><path d="m204.839844 252.589844c-3.1875 0-6.042969-2.242188-6.6875-5.488282-.742188-3.695312 1.660156-7.292968 5.351562-8.035156l34.132813-6.824218c3.730469-.753907 7.292969 1.664062 8.035156 5.351562.742187 3.699219-1.660156 7.292969-5.355469 8.035156l-34.132812 6.828125c-.453125.089844-.90625.132813-1.34375.132813zm0 0"/><path d="m334.542969 133.609375c-3.023438 0-5.792969-2.03125-6.597657-5.097656-.953124-3.648438 1.226563-7.378907 4.878907-8.332031l40.960937-10.726563c3.640625-.957031 7.371094 1.226563 8.332032 4.871094.953124 3.648437-1.226563 7.378906-4.878907 8.332031l-40.960937 10.726562c-.578125.15625-1.160156.226563-1.734375.226563zm0 0"/><path d="m368.683594 177.5c-.8125 0-1.632813-.148438-2.4375-.457031l-33.164063-12.675781c-3.515625-1.347657-5.277343-5.292969-3.933593-8.8125 1.339843-3.523438 5.296874-5.285157 8.816406-3.941407l33.160156 12.675781c3.519531 1.347657 5.277344 5.296876 3.933594 8.816407-1.035156 2.71875-3.628906 4.394531-6.375 4.394531zm0 0"/><path d="m375.511719 150.1875h-39.007813c-3.773437 0-6.824218-3.054688-6.824218-6.824219 0-3.773437 3.050781-6.828125 6.824218-6.828125h39.007813c3.773437 0 6.828125 3.054688 6.828125 6.828125 0 3.769531-3.054688 6.824219-6.828125 6.824219zm0 0"/></svg>