<?xml version="1.0"?>
<svg xmlns="http://www.w3.org/2000/svg" id="Layer_1" data-name="Layer 1" viewBox="0 0 512 512" width="512" height="512"><title>Agriculture  vehicle</title><path d="M470.64,330.06l12.986-49.337a6.983,6.983,0,0,0-.006-3.585,104.729,104.729,0,0,0-10.721-24.3C462.521,235.772,448.965,227,433.7,227H396V67.9A10.9,10.9,0,0,0,385.022,57H374.848A10.793,10.793,0,0,0,364,67.9V227H287.013C280.947,227,276,231.444,276,237.51v8.152l-19.769-31.309a128.436,128.436,0,0,0,5.942-13.938c1.39-4.04,4.285-12.445-2.383-15.836s-11.743,3.911-14.185,7.414a135.811,135.811,0,0,0-9.031,15.463h0a136.2,136.2,0,0,0-7.168,16.407c-1.389,4.039-4.283,12.444,2.377,15.833a7.547,7.547,0,0,0,3.451.875c4.963,0,8.739-5.412,10.741-8.283.822-1.178,1.676-2.5,2.556-3.911L276,271.878V284H243.835l-22.516-45.826A10.955,10.955,0,0,0,211.447,232H163V194.209c0-19.447-5.667-35.726-15.778-45.839-7.8-7.792-18.128-6.686-19.3-6.535A6.847,6.847,0,0,0,122,148.777V232H72.522A11.069,11.069,0,0,0,62.5,238.531L22.731,326.685a11.016,11.016,0,0,0,11.936,15.381l15.943-2.807,8.365,3.461a84.633,84.633,0,0,0,.015,26.5l-9.923,4.114a7,7,0,0,0-3.784,9.149l10.158,24.49a7,7,0,0,0,9.149,3.784l9.919-4.115a86.326,86.326,0,0,0,18.752,18.731L89.154,435.3a7,7,0,0,0,3.8,9.145l24.5,10.129a7,7,0,0,0,9.143-3.794l4.1-9.917a86.251,86.251,0,0,0,26.5-.009l4.111,9.909a7,7,0,0,0,9.147,3.784l24.492-10.158a7,7,0,0,0,3.784-9.149l-4.112-9.908a86.169,86.169,0,0,0,18.73-18.762l9.924,4.1a7,7,0,0,0,9.145-3.793l10.133-24.494a7,7,0,0,0-3.794-9.145l-9.925-4.1a86.3,86.3,0,0,0-.012-26.506l7.985-3.311,16.11,2.749a10.96,10.96,0,0,0,10.663-4.261,11.162,11.162,0,0,0,1.059-11.551L259.653,316H276v16.488c0,6.066,4.947,10.512,11.013,10.512h75.5c-7.267,12-11.179,24.691-11.179,38.449a70.832,70.832,0,1,0,119.3-51.389ZM378,71h4V227h-4ZM136,157.005c0,.332,1.033.747,1.551,1.265C141.875,162.6,149,173.015,149,194.209V232H136Zm86.16,238.058-8.727-3.61a7,7,0,0,0-8.61,2.755,71.8,71.8,0,0,1-22.57,22.608,7,7,0,0,0-2.747,8.613l3.615,8.711-11.559,4.8-3.615-8.713a7,7,0,0,0-8.037-4.139,71.908,71.908,0,0,1-31.944.012,7.009,7.009,0,0,0-8.027,4.149l-3.606,8.719-11.565-4.781,3.608-8.725a7,7,0,0,0-2.748-8.605,71.971,71.971,0,0,1-22.6-22.58,7,7,0,0,0-8.613-2.748l-8.722,3.619L60.9,383.585l8.733-3.621a7,7,0,0,0,4.121-8.117c-.081-.332-.151-.66-.224-1.006a71.064,71.064,0,0,1,.222-30.852,7,7,0,0,0-4.149-8.024l-8.727-3.61,4.784-11.567L74.4,320.4a7,7,0,0,0,8.61-2.756,71.7,71.7,0,0,1,22.554-22.6,7,7,0,0,0,2.746-8.612l-3.619-8.721,11.56-4.8,3.618,8.722a7,7,0,0,0,8.037,4.139,71.779,71.779,0,0,1,31.938,0,6.994,6.994,0,0,0,8.031-4.147l3.613-8.737,11.562,4.784-3.611,8.73a7,7,0,0,0,2.751,8.607,70.986,70.986,0,0,1,22,21.633c.188.289.377.583.561.882a7,7,0,0,0,8.646,2.8l8.723-3.619,4.8,11.558-8.724,3.617a7,7,0,0,0-4.14,8.038,71.9,71.9,0,0,1,.016,31.949,7,7,0,0,0,4.151,8.024l8.723,3.608Zm18.907-69.216-8.7-20.965a7,7,0,0,0-9.148-3.783l-9.911,4.111a84.6,84.6,0,0,0-18.752-18.727l4.1-9.921a7,7,0,0,0-3.792-9.143l-24.5-10.139a7,7,0,0,0-9.145,3.792l-4.11,9.936a86.12,86.12,0,0,0-26.5,0l-4.114-9.919a7,7,0,0,0-9.147-3.783L92.86,267.464a7,7,0,0,0-3.784,9.148l4.114,9.919a86.037,86.037,0,0,0-18.714,18.754l-9.937-4.109a7,7,0,0,0-9.143,3.793l-8.58,20.744-8.989,1.529L74.46,246H209.579l39.907,81.229ZM252.771,302l-2.053-4H276v4ZM290,241H433.7c22.257,0,33.465,30.682,35.889,38.309l-11.018,41.736a71.279,71.279,0,0,0-78.621,3.549c-1.96,1.454-3.851,3.406-5.654,4.406H290ZM422.167,438.525a56.836,56.836,0,0,1-40.122-97.087,56.831,56.831,0,0,1,74.006-5.383c.762.564,1.508,1.152,2.269,1.794a56.827,56.827,0,0,1-36.153,100.676Z"/><path d="M174.75,314.072c-.737-.553-1.493-1.085-2.229-1.568a52,52,0,1,0-28.648,95.423q1.464,0,2.942-.082a51.993,51.993,0,0,0,27.935-93.773Zm-2.511,67.178a37.75,37.75,0,0,1-26.207,12.616c-.721.041-1.436.061-2.15.061a38,38,0,0,1-28.267-63.37,37.973,37.973,0,0,1,26.162-12.572q1.094-.062,2.18-.061a37.678,37.678,0,0,1,20.872,6.278c.5.33,1.012.688,1.572,1.108a37.988,37.988,0,0,1,5.838,55.94Z"/><path d="M388.647,299.871a7,7,0,0,0,12.868-5.516l-18.175-42.4a7,7,0,1,0-12.867,5.516Z"/><path d="M409.849,299.871a7,7,0,1,0,12.867-5.516l-18.175-42.4a7,7,0,1,0-12.867,5.516Z"/><path d="M431.049,299.871a7,7,0,1,0,12.867-5.516l-18.174-42.4a7,7,0,1,0-12.867,5.516Z"/><path d="M445.571,353.417c-.5-.418-1.008-.82-1.519-1.2a36.943,36.943,0,1,0,1.519,1.2Zm-23.4,50.979a22.707,22.707,0,0,1-16.027-38.791,22.7,22.7,0,0,1,29.564-2.147c.29.214.575.438.906.716A22.7,22.7,0,0,1,422.168,404.4Z"/></svg>
